<?xml version="1.0" encoding="utf-8"?>
<!-- Generator: Adobe Illustrator 25.3.1, SVG Export Plug-In . SVG Version: 6.00 Build 0)  -->
<svg version="1.1" id="Calque_2_1_" xmlns="http://www.w3.org/2000/svg" xmlns:xlink="http://www.w3.org/1999/xlink" x="0px"
	 y="0px" viewBox="0 0 560.9 379.3" style="enable-background:new 0 0 560.9 379.3;" xml:space="preserve">
<style type="text/css">
	.st0{fill:#0D3445;}
	.st1{fill:#F6921E;}
</style>
<path class="st0" d="M124.2,159.6c0,0,81.8-63.2,204-99.5C429,30.2,612.7,27.5,534.9,168.7c0,0,11.8-48.6-14-71.1
	c-26.6-23.3-88.3-36.3-222.3,4c-77.1,24.9-124,58-124,58H124.2z"/>
<path class="st1" d="M62.9,264.3c0,0-24.7,89.7,106.9,80.5C277.7,330.3,318,303.5,318,303.5l53.7-0.5c0,0-64.4,40.8-138.5,57.5
	c-85.9,19.3-152,18.8-174.5-20.9S62.9,264.3,62.9,264.3z"/>
<path class="st0" d="M32.8,352.3c0,0-46.2-23.1-22-96.7c12.4,0.5,33.8,0,33.8,0S12.9,301.9,32.8,352.3z"/>
<path class="st1" d="M57,159.6c0,0,56.4-52,123-86.9C237.3,42.6,311.5,4.9,390.4,4.9c69.3,0,77.3,35.4,77.3,35.4S418.3,5.5,306.6,42
	c-34.1,11.2-68.9,23.9-99.3,39.7C138.1,117.8,87,159.6,87,159.6H57z"/>
<g>
	<path class="st1" d="M321.7,166.2c-1,1.1-1.9,2.2-2.9,3.4c-0.4-1-0.7-1.9-1.1-2.8c-1,1.2-1.8,2.3-2.8,3.5c-0.7-0.8-1.3-1.5-1.9-2.3
		c-0.7,1-1.4,2-2.2,3.1c-0.3-1.6-0.5-3-0.8-4.6c-0.8,0.9-1.6,1.7-2.4,2.5c-0.4-1.4-0.8-2.7-1.2-3.9c-2.6,1.2-5,2.3-7.7,3.6
		c0.8-1.5,1.5-2.9,2.3-4.4c-2.5,0.3-4.9,0.7-7.5,1c0-1.5-0.1-2.9-0.1-4.4c0-1.1-0.1-1.2-1.1-0.9c-2.3,0.7-4.7,1.4-7.2,2
		c1-1.2,2-2.5,3.2-4c-3.4,0.2-6.5,0.4-9.6,0.6c0-0.1-0.1-0.1-0.1-0.2c1.4-1,2.7-1.9,4.3-3.1c-3.9,0-7.4,0-11,0c0-0.1,0-0.2,0-0.2
		c2.8-1.1,5.6-2.2,8.4-3.3c0-0.1,0.1-0.2,0.1-0.2c-7.5-0.8-14.6-3-21.1-7.2c6.6,1.4,13.1,1.8,19.7,1.8c-1.4-0.4-2.7-0.8-4.1-1.2
		c-3.6-1-7.2-1.7-10.5-3.7c-2.1-1.2-4-2.7-5.9-4.2c-1.5-1.2-2.8-2.6-4.2-4c8,3,16.1,5.9,24.4,8.2c-3.2-2.8-6.3-5.6-9.5-8.4
		c0-0.1,0.1-0.2,0.1-0.3c4.9,2.3,9.9,3.8,15.4,4.4c-1.3-1.5-2.6-2.8-4.1-4.4c9.7,3,19.3,4.4,29.3,4.8c-0.1-0.8-0.3-1.6-0.4-2.5
		c-0.5-2.8-0.1-5.4,1.8-7.6c1.4-1.6,3.4-2.5,5.5-2.9c1.4-0.3,2.8-0.4,4.2-0.6c0.2,0,0.5-0.1,0.6-0.3c0.7-1.2,1.7-1.1,2.8-0.9
		c0.8,0.1,1.7,0.2,2.6,0.3c3.4,0.2,6.7,1,10,2.1c3.8,1.2,7.1,3.3,10.6,5c2.8,1.4,5.8,2.5,8.7,3.8c2.9,1.2,5.9,1.2,8.9,0.9
		c2.6-0.2,5.2-0.9,7.7-1.6c2.9-0.8,5.8-1.8,8.7-2.9c1.5-0.6,2.9-1.4,4.4-2.1c2.6-1.1,5.2-2.3,7.9-3.1c4-1.2,8.1-2,12.1-3.1
		c2.8-0.7,5.5-1.7,8.1-2.6c3.7-1.4,7.3-2.8,11-4.3c2.4-1,4.8-2.3,7.2-3.4c0.1-0.1,0.3-0.1,0.6,0c-2.7,3.4-5.4,6.9-8.1,10.3l0.1,0.1
		c6.9-4.1,13.7-8.2,20.6-12.3l0.1,0.1c-2.9,4.2-5.9,8.5-8.9,13c8.8-4.9,17.2-10,25.5-15.4c-0.8,1.8-1.5,3.5-2.4,5.3
		c-1.3,2.6-3,5-5.2,6.8c-1.8,1.5-3.7,2.9-5.7,4.1c-3,1.8-6.2,3.3-9.2,4.9c-0.1,0-0.1,0.1-0.2,0.2c0,0.1,0,0.2,0.1,0.3
		c2.3-0.5,4.7-0.9,7-1.5c2.3-0.7,4.6-1.6,6.8-2.5c2.2-0.9,4.4-1.9,6.7-2.7c-0.6,0.7-1.1,1.5-1.7,2.2c-2.8,3.2-6,5.9-10.1,7.3
		c-2.7,1-5.4,2.1-8,3.2c-0.1,0.1-0.2,0.1-0.3,0.4c0.3,0,0.7,0,1,0c3.2,0.1,6.4,0.3,9.7,0.4c0.2,0,0.4,0.1,0.8,0.2
		c-5,1.6-9.9,3.2-15,4.9c2.3,1,4.3,1.9,6.4,2.8c0,0.1,0,0.1,0,0.2c-3.6,0.4-7.3,0.7-11.1,1.1c1.7,1.8,3.3,3.5,5.1,5.3
		c-4-0.5-7.9-1-11.9-1.5c1,2.1,1.9,4.1,2.9,6.2c-3.6-0.3-7-0.6-10.7-1c1.7,2,3.2,3.9,5,6c-3.4-0.8-6.5-1.5-9.7-2.3c0,1.6,0,3,0,4.5
		c-1.4-0.4-2.7-0.7-4.1-1.1c0.2,1,0.4,1.8,0.6,2.8c-1.3-0.3-2.6-0.6-4-0.9c0,0.6,0,1.2,0,2c-1.4-0.9-2.6-1.8-3.9-2.6
		c-0.6,0.9-1.3,1.8-1.9,2.7c-1.4-0.8-2.7-1.6-4.3-2.5c-0.2,1.4-0.3,2.6-0.5,4c-1.6-0.3-3.1-0.5-4.7-0.8c-0.5-0.1-0.9-0.2-1.3-0.4
		c-1.2-0.7-2.4-0.8-3.7-0.1c-1.8,0.9-3.6,1.7-5.6,2.6c0.8,0.6,1.5,1.2,2.3,1.6c2.2,1.2,4.5,2,7,2.2c1.4,0.1,2.9,0.4,4.3,0.4
		c2.8-0.1,5.5-0.5,8.2-0.7c0.7-0.1,1.4-0.1,2.4-0.1c-1.8,1.4-3.5,2.8-5.3,4.2c1.6,1.2,3.2,2.3,4.9,3.5c-2.4,0.5-4.7,0.9-7.3,1.4
		c2.9,1.9,5.6,3.7,8.3,5.5c0,0.1,0,0.1,0,0.2c-2.2-0.1-4.3-0.2-6.7-0.3c1.1,1.4,2.1,2.7,3.3,4.2c-3.6-0.5-7-1-10.6-1.5
		c1.1,1.7,2.1,3.2,3.2,5c-1.4-0.5-2.7-0.8-3.8-1.2c-2.2-0.9-4.5-1.7-6.7-2.9c-2.1-1.2-4-2.7-6-4.1c-1.1-0.8-2.1-1.8-3.3-2.6
		c-0.6-0.4-1.4-0.4-2.2-0.4c-1.8-0.1-3.7,0-5.5,0c-1.2,0-2.4-0.1-3.5-0.2c-3.4-0.1-6.8-0.7-10-1.7c-2.5-0.8-5.1-1.6-7.5-2.8
		c-2.7-1.3-5.2-3-7.6-4.7c-2.1-1.6-4-3.5-5.9-5.3c-0.6-0.6-1.1-1.2-1.7-1.9c-2.1,1.5-4.2,3-6.4,4.5
		C322.1,168.7,321.9,167.5,321.7,166.2z M349.2,146.9c-1.2-4.2-3.7-7.5-6.3-11c2.5-0.2,4.7-0.3,7-0.4c-3.9-3.2-8-6-12.8-7.7
		c-4.8-1.8-9.8-2.1-15-2.3c0.9,1.4,1.7,2.6,2.6,3.8c0.1,0.2,0.4,0.4,0.6,0.4c1.4,0,2.9,0.1,4.3,0c1.6-0.2,2.4,0.3,2.7,2
		c-1.7,0-3.5,0-5.2,0c-0.6,0-0.7,0.1-0.7,0.9c0.1,1.4,0.1,2.9-0.1,4.3c-0.2,1.1-0.9,2.2-1.4,3.3c-0.3,0.5-0.2,0.8,0.3,1.1
		c1.1,0.5,2.1,1.2,3.2,1.8c3.6,2.1,7.2,4.1,10.8,6.2c0.6,0.3,1.2,0.6,1.9,1c-0.4-2.9-0.8-5.5-1.3-8.3
		C343,143.6,346,145.2,349.2,146.9z M324.3,134.9c-0.6-2.4-1.5-4.4-3.2-5.9c-1.7-1.6-4.2-1.8-5.9-0.7c-2.2,1.5-2.9,5.4-1.8,8
		C316.7,133.5,320.4,133.7,324.3,134.9z M317.3,136c0.1,1.5,1.6,2.5,2.8,2.6c1.5,0.2,2.8-0.6,3.3-2.6C321.4,136,319.4,136,317.3,136
		z"/>
</g>
<g>
	<path class="st0" d="M33.9,229l5.9-7.7h13.1l-8.1-10.8L30.6,229h-12l20-26.6c0.6-0.9,1.5-1.7,2.6-2.3c1.2-0.7,2.4-1.1,3.6-1.1
		c1.2,0,2.4,0.4,3.6,1.1c1.1,0.6,1.9,1.4,2.6,2.3L70.6,229H33.9z"/>
	<path class="st0" d="M112,213.8c0,4.4-1.8,8-5.4,10.9s-8.1,4.3-13.5,4.3H72.2v-18.7h9.7v11h11.2c2.7,0,4.9-0.7,6.6-2s2.6-3,2.6-5.2
		c0-2.1-0.9-3.9-2.6-5.3c-1.7-1.4-4-2.1-6.6-2.1H72.2l6.2-7.7h14.8c5.5,0,10,1.4,13.6,4.1S112,209.4,112,213.8z"/>
	<path class="st0" d="M154.3,221.3l-6.2,7.7h-15.7c-5.4,0-9.9-1.4-13.5-4.3c-3.6-2.9-5.4-6.5-5.4-10.9s1.8-7.9,5.3-10.6
		c3.5-2.7,8-4.1,13.6-4.1h21.9l-6.2,7.7h-15.7c-2.7,0-4.9,0.7-6.6,2.1c-1.7,1.4-2.6,3.1-2.6,5.3c0,2.1,0.9,3.8,2.6,5.2s3.9,2,6.6,2
		L154.3,221.3L154.3,221.3z"/>
	<path class="st0" d="M213.2,221.3L207,229h-15.7c-5.4,0-9.9-1.4-13.5-4.3c-3.6-2.9-5.4-6.5-5.4-10.9s1.8-7.9,5.3-10.6
		c3.5-2.7,8-4.1,13.6-4.1h21.9l-6.2,7.7h-15.7c-2.7,0-4.9,0.7-6.6,2.1c-1.7,1.4-2.6,3.1-2.6,5.3c0,2.1,0.9,3.8,2.6,5.2s3.9,2,6.6,2
		L213.2,221.3L213.2,221.3z"/>
	<path class="st0" d="M261.6,213.8c0,4.4-1.8,8-5.4,10.9s-8.1,4.3-13.5,4.3h-9.4c-5.5,0-10-1.4-13.5-4.3c-3.6-2.9-5.4-6.5-5.4-10.9
		s1.8-7.9,5.3-10.6c3.5-2.7,8.1-4.1,13.6-4.1h9.4c5.5,0,10,1.4,13.6,4.1C259.9,205.9,261.6,209.4,261.6,213.8z M242.8,206.8h-9.4
		c-2.7,0-4.9,0.7-6.6,2.1c-1.7,1.4-2.6,3.1-2.6,5.3c0,2.1,0.9,3.9,2.6,5.2s3.9,2,6.6,2h9.4c2.7,0,4.9-0.7,6.6-2s2.6-3,2.6-5.2
		c0-2.1-0.9-3.9-2.6-5.3S245.5,206.8,242.8,206.8z"/>
	<path class="st0" d="M302.6,225.2c0,2.7-1.3,4.1-3.9,4.1c-1.8,0-3.6-0.7-5.3-2l-18.3-14.7V229h-9.7v-26.1c0-1.1,0.4-2,1.1-2.7
		s1.8-1.1,3.1-1.1c1.8,0,3.4,0.6,4.9,1.8l18.3,14.7v-16.5h9.7L302.6,225.2L302.6,225.2z"/>
	<path class="st0" d="M346.6,199.1l-6.2,7.7h-22.1c-1.2,0-1.8,0.4-1.8,1.2s0.6,1.2,1.8,1.2h15.9c3.8,0,7,0.9,9.5,2.7
		c2.6,1.9,3.9,4.3,3.9,7.3s-1.3,5.4-4,7.2c-2.5,1.7-5.6,2.6-9.4,2.6h-28.6l6.2-7.7h22.3c1,0,1.9-0.2,2.7-0.5c1-0.4,1.6-1,1.6-1.7
		s-0.5-1.3-1.6-1.7c-0.8-0.3-1.7-0.4-2.7-0.4h-15.9c-3.5,0-6.5-0.8-8.8-2.3c-2.5-1.7-3.8-3.9-3.8-6.6c0-2.8,1.3-5,3.8-6.6
		c2.4-1.5,5.3-2.3,8.8-2.3L346.6,199.1L346.6,199.1z"/>
	<path class="st0" d="M391.8,215.4c0,9.1-6.5,13.6-19.5,13.6h-2c-13,0-19.5-4.5-19.5-13.6v-16.3h9.7v16.3c0,2.7,1.2,4.5,3.7,5.2
		c1.3,0.4,4,0.7,8.1,0.7c3.3,0,5.6-0.3,7-1c1.9-0.9,2.8-2.5,2.8-4.9v-16.3h9.7L391.8,215.4L391.8,215.4z"/>
	<path class="st0" d="M427.7,221.3l-6.3,7.7h-27.6v-29.9h9.7v22.2H427.7z"/>
	<path class="st0" d="M454.3,199.1l-6.3,7.7h-9.4V229H429v-22.2h-12.9l6.2-7.7H454.3z"/>
	<path class="st0" d="M466.7,229H457v-29.9h9.7V229z"/>
	<path class="st0" d="M508.6,225.2c0,2.7-1.3,4.1-3.9,4.1c-1.8,0-3.6-0.7-5.3-2l-18.3-14.7V229h-9.7v-26.1c0-1.1,0.4-2,1.1-2.7
		s1.8-1.1,3.1-1.1c1.8,0,3.4,0.6,4.9,1.8l18.3,14.7v-16.5h9.7L508.6,225.2L508.6,225.2z"/>
	<path class="st0" d="M552.4,199.1l-6.2,7.7h-15.7c-2.7,0-4.9,0.7-6.6,2.1c-1.7,1.4-2.6,3.1-2.6,5.3c0,2.1,0.9,3.9,2.6,5.2
		s3.9,2,6.6,2h11.3v-2.8h-12.1l-6.4-7.4h28.2V229h-21c-5.4,0-9.9-1.4-13.5-4.3c-3.6-2.9-5.4-6.5-5.4-10.9s1.8-7.9,5.3-10.6
		s8-4.1,13.6-4.1L552.4,199.1L552.4,199.1z"/>
</g>
<g>
	<path d="M80.3,263.7v11.9h-2.9v-19.3L89,268.9V257h2.9v19.3L80.3,263.7z"/>
	<path d="M100.9,274.8c-1.1-0.5-2.1-1.1-2.9-2c-0.8-0.8-1.5-1.8-2-2.9s-0.7-2.3-0.7-3.6c0-1.2,0.2-2.5,0.7-3.6s1.1-2.1,2-2.9
		c0.8-0.8,1.8-1.5,2.9-2s2.3-0.7,3.6-0.7s2.5,0.2,3.6,0.7s2.1,1.1,2.9,2s1.5,1.8,2,2.9s0.7,2.4,0.7,3.6s-0.2,2.5-0.7,3.6
		s-1.1,2.1-2,2.9s-1.8,1.5-2.9,2s-2.4,0.7-3.6,0.7S102,275.3,100.9,274.8z M100,261.8c-1.2,1.2-1.9,2.8-1.9,4.5s0.7,3.3,1.9,4.5
		s2.8,1.9,4.5,1.9s3.3-0.7,4.5-1.9s1.9-2.8,1.9-4.5s-0.7-3.3-1.9-4.5s-2.8-1.9-4.5-1.9S101.2,260.6,100,261.8z"/>
	<path d="M118.9,274.1c-0.7-0.5-1.3-1.2-1.6-2c-0.4-0.8-0.6-1.8-0.6-2.8v-12.2h2.9v12.2c0,1.1,0.4,1.9,1.1,2.5
		c0.7,0.5,1.7,0.9,2.8,0.9c1.1,0,2.1-0.3,2.8-0.9c0.7-0.6,1.1-1.4,1.1-2.5v-12.2h2.9v12.2c0,1-0.2,2-0.6,2.8c-0.4,0.8-0.9,1.4-1.6,2
		c-1.2,0.9-2.8,1.5-4.6,1.5S120.1,275,118.9,274.1z"/>
	<path d="M143.2,271.8c-0.5,1.8-2.1,3.2-4.2,3.6c-0.4,0.1-0.7,0.1-1.1,0.1c-0.7,0-1.5-0.1-2.2-0.4c-1.2-0.5-2.2-1.2-3.1-2.4l2.3-1.8
		c0.5,0.7,1.1,1.2,1.8,1.4c0.5,0.2,1.1,0.3,1.7,0.2c0.9-0.2,1.7-0.8,1.9-1.5c0.2-0.8-0.3-1.6-0.8-2.1c-0.8-0.8-2.2-2.1-2.3-2.2
		l-2.3-2.1c-0.7-0.7-1.2-1.4-1.4-2.2c-0.2-0.8-0.3-1.6,0-2.3c0.2-0.8,0.7-1.5,1.4-2.1c0.6-0.5,1.4-0.9,2.2-1
		c0.9-0.2,1.8-0.1,2.7,0.2c0.9,0.4,1.8,1,2.5,1.9l-2.3,1.8c-0.9-1.1-1.9-1.1-2.4-1c-0.6,0.1-1.2,0.5-1.3,1.1
		c-0.1,0.3-0.1,0.9,0.7,1.7l3.1,3c0.4,0.4,1,1,1.4,1.3c0.8,0.7,1.3,1.5,1.6,2.4C143.4,270.1,143.4,271,143.2,271.8z"/>
	<path d="M167.6,266.3c0,2.6-0.8,4.9-2.2,6.5c-0.8,0.9-1.8,1.6-3,2c-1.2,0.5-2.5,0.7-4,0.7H155h-1V257h2.9h1.5c1.5,0,2.8,0.2,4,0.7
		c1.2,0.4,2.2,1.1,3,2C166.8,261.5,167.6,263.7,167.6,266.3z M164.7,266.3c0-1.9-0.5-3.5-1.5-4.5c-1.1-1.2-2.7-1.8-4.9-1.8h-1.5
		v12.7h1.5c2.1,0,3.8-0.6,4.9-1.8C164.2,269.8,164.7,268.2,164.7,266.3z"/>
	<path d="M175.8,274.8c-1.1-0.5-2.1-1.1-2.9-2c-0.8-0.8-1.5-1.8-2-2.9s-0.7-2.3-0.7-3.6c0-1.2,0.2-2.5,0.7-3.6s1.1-2.1,2-2.9
		c0.8-0.8,1.8-1.5,2.9-2c1.1-0.5,2.3-0.7,3.6-0.7s2.5,0.2,3.6,0.7s2.1,1.1,2.9,2c0.8,0.9,1.5,1.8,2,2.9s0.7,2.4,0.7,3.6
		s-0.2,2.5-0.7,3.6s-1.1,2.1-2,2.9s-1.8,1.5-2.9,2c-1.1,0.5-2.4,0.7-3.6,0.7S176.9,275.3,175.8,274.8z M174.9,261.8
		c-1.2,1.2-1.9,2.8-1.9,4.5s0.7,3.3,1.9,4.5s2.8,1.9,4.5,1.9s3.3-0.7,4.5-1.9s1.9-2.8,1.9-4.5s-0.7-3.3-1.9-4.5s-2.8-1.9-4.5-1.9
		S176.1,260.6,174.9,261.8z"/>
	<path d="M194.7,263.7v11.9h-2.9v-19.3l11.6,12.7v-11.9h2.9v19.3L194.7,263.7z"/>
	<path d="M213.1,263.7v11.9h-2.9v-19.3l11.6,12.7v-11.9h2.9v19.3L213.1,263.7z"/>
	<path d="M233.7,274.8c-1.1-0.5-2.1-1.1-2.9-2c-0.8-0.8-1.5-1.8-2-2.9s-0.7-2.3-0.7-3.6c0-1.2,0.2-2.5,0.7-3.6s1.1-2.1,2-2.9
		c0.8-0.8,1.8-1.5,2.9-2c1.1-0.5,2.3-0.7,3.6-0.7s2.5,0.2,3.6,0.7s2.1,1.1,2.9,2c0.8,0.9,1.5,1.8,2,2.9s0.7,2.4,0.7,3.6
		s-0.2,2.5-0.7,3.6s-1.1,2.1-2,2.9s-1.8,1.5-2.9,2c-1.1,0.5-2.4,0.7-3.6,0.7S234.8,275.3,233.7,274.8z M232.8,261.8
		c-1.2,1.2-1.9,2.8-1.9,4.5s0.7,3.3,1.9,4.5s2.8,1.9,4.5,1.9s3.3-0.7,4.5-1.9s1.9-2.8,1.9-4.5s-0.7-3.3-1.9-4.5s-2.8-1.9-4.5-1.9
		S234,260.6,232.8,261.8z"/>
	<path d="M252.6,263.7v11.9h-2.9v-19.3l11.6,12.7v-11.9h2.9v19.3L252.6,263.7z"/>
	<path d="M277.9,271.8c-0.5,1.8-2.1,3.2-4.2,3.6c-0.4,0.1-0.7,0.1-1.1,0.1c-0.7,0-1.5-0.1-2.2-0.4c-1.2-0.5-2.2-1.2-3.1-2.4l2.3-1.8
		c0.5,0.7,1.1,1.2,1.8,1.4c0.5,0.2,1.1,0.3,1.7,0.2c0.9-0.2,1.7-0.8,1.9-1.5c0.2-0.8-0.3-1.6-0.8-2.1c-0.8-0.8-2.2-2.1-2.3-2.2
		l-2.3-2.1c-0.7-0.7-1.2-1.4-1.4-2.2c-0.2-0.8-0.3-1.6,0-2.3c0.2-0.8,0.7-1.5,1.4-2.1c0.6-0.5,1.4-0.9,2.2-1
		c0.9-0.2,1.8-0.1,2.7,0.2c0.9,0.4,1.8,1,2.5,1.9l-2.3,1.8c-0.9-1.1-1.9-1.1-2.4-1c-0.6,0.1-1.2,0.5-1.3,1.1
		c-0.1,0.3-0.1,0.9,0.7,1.7l3.1,3c0.4,0.4,1,1,1.4,1.3c0.8,0.7,1.3,1.5,1.6,2.4C278.1,270.1,278.2,271,277.9,271.8z"/>
	<path d="M295.8,269.2l4.9-12.2h3.1l-7.9,19.3l-8.5-19.3h3.2L295.8,269.2z"/>
	<path d="M306.4,275.5V257h2.9v18.5H306.4z"/>
	<path d="M316,264.6h6.7v2.6H316v5.7h8.2v2.6H316h-2.9V257h2.9h8.2v2.6H316V264.6z"/>
	<path d="M345.1,271.6h-6.6l-1.6,4h-3.2l8-19.3l8,19.3h-3.2L345.1,271.6z M344,269l-2.2-5.6l-2.2,5.6H344z"/>
	<path d="M366.9,269.2l4.9-12.2h3.1l-7.9,19.3l-8.5-19.3h3.2L366.9,269.2z"/>
	<path d="M380.2,274.8c-1.1-0.5-2.1-1.1-2.9-2c-0.8-0.8-1.5-1.8-2-2.9s-0.7-2.3-0.7-3.6c0-1.2,0.2-2.5,0.7-3.6s1.1-2.1,2-2.9
		c0.8-0.8,1.8-1.5,2.9-2s2.3-0.7,3.6-0.7c1.2,0,2.5,0.2,3.6,0.7s2.1,1.1,2.9,2s1.5,1.8,2,2.9s0.7,2.4,0.7,3.6s-0.2,2.5-0.7,3.6
		s-1.1,2.1-2,2.9s-1.8,1.5-2.9,2s-2.4,0.7-3.6,0.7C382.5,275.5,381.3,275.3,380.2,274.8z M379.3,261.8c-1.2,1.2-1.9,2.8-1.9,4.5
		s0.7,3.3,1.9,4.5s2.8,1.9,4.5,1.9s3.3-0.7,4.5-1.9s1.9-2.8,1.9-4.5s-0.7-3.3-1.9-4.5s-2.8-1.9-4.5-1.9S380.5,260.6,379.3,261.8z"/>
	<path d="M405.1,271.8c-0.5,1.8-2.1,3.2-4.2,3.6c-0.4,0.1-0.7,0.1-1.1,0.1c-0.7,0-1.5-0.1-2.2-0.4c-1.2-0.5-2.2-1.2-3.1-2.4l2.3-1.8
		c0.5,0.7,1.1,1.2,1.8,1.4c0.5,0.2,1.1,0.3,1.7,0.2c0.9-0.2,1.7-0.8,1.9-1.5c0.2-0.8-0.3-1.6-0.8-2.1c-0.8-0.8-2.2-2.1-2.3-2.2
		l-2.3-2.1c-0.7-0.7-1.2-1.4-1.4-2.2c-0.2-0.8-0.3-1.6,0-2.3c0.2-0.8,0.7-1.5,1.4-2.1c0.6-0.5,1.4-0.9,2.2-1
		c0.9-0.2,1.8-0.1,2.7,0.2c0.9,0.4,1.8,1,2.5,1.9l-2.3,1.8c-0.9-1.1-1.9-1.1-2.4-1c-0.6,0.1-1.2,0.5-1.3,1.1
		c-0.1,0.3-0.1,0.9,0.7,1.7l3.1,3c0.4,0.4,1,1,1.4,1.3c0.8,0.7,1.3,1.5,1.6,2.4C405.3,270.1,405.3,271,405.1,271.8z"/>
	<path d="M418.3,257.1h3c2.4,0,3.9,1,4.6,1.8c1,1.1,1.5,2.6,1.5,4.3c0,1.7-0.5,3.2-1.5,4.3c-0.7,0.8-2.2,1.8-4.6,1.8h-2.6v6.2h-2.9
		V257h2.5V257.1z M424.9,263.2c0-0.7-0.2-1.8-0.8-2.5c-0.6-0.6-1.5-1-2.7-1h-2.6v7h2.6c1.2,0,2.1-0.3,2.7-1S424.9,263.9,424.9,263.2
		z"/>
	<path d="M442.8,275.5h-3.3l-4.7-6.2h-2.1v6.2h-2.9V257h2.4h3c2.4,0,3.9,1,4.6,1.8c1,1.1,1.5,2.6,1.5,4.3c0,1.7-0.5,3.2-1.5,4.3
		c-0.4,0.5-1.1,1.1-2.1,1.4L442.8,275.5z M435.3,266.7c1.2,0,2.1-0.3,2.7-1c0.7-0.7,0.8-1.8,0.8-2.5s-0.1-1.8-0.8-2.5
		c-0.6-0.6-1.5-1-2.7-1h-2.6v7H435.3z"/>
	<path d="M449.7,274.8c-1.1-0.5-2.1-1.1-2.9-2c-0.8-0.8-1.5-1.8-2-2.9s-0.7-2.3-0.7-3.6c0-1.2,0.2-2.5,0.7-3.6s1.1-2.1,2-2.9
		c0.8-0.8,1.8-1.5,2.9-2s2.3-0.7,3.6-0.7c1.2,0,2.5,0.2,3.6,0.7s2.1,1.1,2.9,2s1.5,1.8,2,2.9s0.7,2.4,0.7,3.6s-0.2,2.5-0.7,3.6
		s-1.1,2.1-2,2.9s-1.8,1.5-2.9,2s-2.4,0.7-3.6,0.7C452,275.5,450.8,275.3,449.7,274.8z M448.8,261.8c-1.2,1.2-1.9,2.8-1.9,4.5
		s0.7,3.3,1.9,4.5s2.8,1.9,4.5,1.9s3.3-0.7,4.5-1.9s1.9-2.8,1.9-4.5s-0.7-3.3-1.9-4.5s-2.8-1.9-4.5-1.9S450,260.6,448.8,261.8z"/>
	<path d="M472.6,269.3c0,2.5-1.1,4-2.1,4.8c-1.1,1-2.7,1.5-4.5,1.5c-0.4,0-0.8,0-1.2-0.1v-3c0.4,0.1,0.8,0.1,1.2,0.1
		c1.1,0,2-0.3,2.6-0.8c0.7-0.6,1-1.4,1-2.6V257h2.9v12.3H472.6z"/>
	<path d="M479.1,264.6h6.7v2.6h-6.7v5.7h8.2v2.6h-8.2h-2.9V257h2.9h8.2v2.6h-8.2V264.6z"/>
	<path d="M502.6,259.7h-5.1v15.9h-2.9v-15.9h-5.1v-2.6h13.1V259.7z"/>
	<path d="M514.7,271.8c-0.5,1.8-2.1,3.2-4.2,3.6c-0.4,0.1-0.7,0.1-1.1,0.1c-0.7,0-1.5-0.1-2.2-0.4c-1.2-0.5-2.2-1.2-3.1-2.4l2.3-1.8
		c0.5,0.7,1.1,1.2,1.8,1.4c0.5,0.2,1.1,0.3,1.7,0.2c0.9-0.2,1.7-0.8,1.9-1.5c0.2-0.8-0.3-1.6-0.8-2.1c-0.8-0.8-2.2-2.1-2.3-2.2
		l-2.3-2.1c-0.7-0.7-1.2-1.4-1.4-2.2c-0.2-0.8-0.3-1.6,0-2.3c0.2-0.8,0.7-1.5,1.4-2.1c0.6-0.5,1.4-0.9,2.2-1
		c0.9-0.2,1.8-0.1,2.7,0.2c0.9,0.4,1.8,1,2.5,1.9l-2.3,1.8c-0.9-1.1-1.9-1.1-2.4-1c-0.6,0.1-1.2,0.5-1.3,1.1
		c-0.1,0.3-0.1,0.9,0.7,1.7l3.1,3c0.4,0.4,1,1,1.4,1.3c0.8,0.7,1.3,1.5,1.6,2.4C514.9,270.1,514.9,271,514.7,271.8z"/>
</g>
</svg>
